<?xml version="1.0" standalone="no"?><!DOCTYPE svg PUBLIC "-//W3C//DTD SVG 1.1//EN" "http://www.w3.org/Graphics/SVG/1.1/DTD/svg11.dtd"><svg t="1595484845779" class="icon" viewBox="0 0 1024 1024" version="1.1" xmlns="http://www.w3.org/2000/svg" p-id="772" width="128" height="128" xmlns:xlink="http://www.w3.org/1999/xlink"><defs><style type="text/css"></style></defs><path d="M512.6 512.19m-447.99 0a447.99 447.99 0 1 0 895.98 0 447.99 447.99 0 1 0-895.98 0Z" fill="#ffffff" p-id="773" data-spm-anchor-id="a313x.7781069.0.i3" class="selected"></path><path d="M500.24 273.06c6.76-6.55 17.51-6.55 24.28 0 3.25 3.21 5.07 7.59 5.07 12.16s-1.83 8.94-5.07 12.15L282.6 538.94c-6.77 6.57-17.54 6.57-24.31 0a17.076 17.076 0 0 1-5.05-12.14c0-4.56 1.82-8.93 5.05-12.14l241.95-241.6z m0 0" fill="#ffffff" p-id="774"></path><path d="M500.58 272.72c3.21-3.24 7.58-5.05 12.14-5.05 4.56 0 8.93 1.82 12.14 5.05L766.8 514.66c6.7 6.71 6.7 17.59-0.02 24.29-6.71 6.7-17.59 6.7-24.29-0.02l-241.91-241.9c-6.58-6.78-6.58-17.54 0-24.31z m114.58 56.13a16.773 16.773 0 0 1 17.11-17.11h68.43c9.46 0 17.1 7.65 17.1 17.07 0.1 4.56-1.66 8.97-4.88 12.21a16.77 16.77 0 0 1-12.19 4.93h-68.46c-9.45 0.01-17.11-7.65-17.11-17.1z m0 0" fill="#ffffff" p-id="775"></path><path d="M683.62 328.51c0-9.46 7.68-17.11 17.11-17.11 4.56-0.09 8.96 1.68 12.19 4.89 3.23 3.22 5 7.62 4.92 12.18v68.46c0 9.43-7.64 17.09-17.07 17.1-4.56 0.1-8.97-1.66-12.21-4.88a16.713 16.713 0 0 1-4.93-12.19v-68.49 0.04z m-376.4 205.65c0-9.46 7.67-17.12 17.13-17.12 9.46 0 17.12 7.67 17.12 17.12v205.31c0 9.46-7.67 17.12-17.12 17.12-9.46 0-17.13-7.67-17.13-17.12V534.16z m0 0" fill="#ffffff" p-id="776"></path><path d="M307.22 739.47a16.79 16.79 0 0 1 4.91-12.2c3.23-3.23 7.64-5 12.2-4.91h136.92c9.42 0 17.07 7.65 17.07 17.07 0.1 4.56-1.66 8.97-4.88 12.21a16.77 16.77 0 0 1-12.19 4.93H324.33c-9.44-0.02-17.07-7.67-17.07-17.11h-0.04z m239.55 0c-0.09-4.56 1.68-8.96 4.89-12.19 3.22-3.23 7.62-5 12.18-4.92h136.92c9.42 0 17.07 7.65 17.07 17.07 0.1 4.56-1.66 8.97-4.88 12.21a16.753 16.753 0 0 1-12.19 4.93H563.85c-9.44-0.02-17.08-7.67-17.08-17.1z m0 0" fill="#ffffff" p-id="777"></path><path d="M444.1 636.45c0.2-9.3 7.8-16.73 17.11-16.73 4.5-0.09 8.85 1.63 12.06 4.78 3.22 3.14 5.03 7.45 5.04 11.95v102.67c-0.2 9.29-7.78 16.71-17.07 16.73-4.51 0.1-8.86-1.62-12.09-4.76a16.71 16.71 0 0 1-5.05-11.97v-102.7 0.03z m0 0" fill="#ffffff" p-id="778"></path><path d="M444.1 636.8a16.763 16.763 0 0 1 16.77-17.07h102.67c9.29 0.2 16.71 7.78 16.73 17.07 0.09 4.5-1.63 8.85-4.78 12.06a16.754 16.754 0 0 1-11.95 5.04h-102.7c-9.3-0.18-16.75-7.77-16.77-17.07l0.03-0.03z m0 0" fill="#ffffff" p-id="779"></path><path d="M546.77 636.45c0.21-9.29 7.78-16.72 17.07-16.73 4.5-0.1 8.86 1.62 12.08 4.76a16.76 16.76 0 0 1 5.06 11.97v102.67c-0.21 9.3-7.8 16.73-17.11 16.73-4.5 0.09-8.85-1.63-12.06-4.78a16.754 16.754 0 0 1-5.04-11.95v-102.7 0.03z m153.99-119.4c-9.37 0.16-16.94 7.7-17.14 17.07v205.34c0 9.45 7.66 17.11 17.11 17.11s17.1-7.66 17.1-17.11v-205.3c-0.17-9.36-7.71-16.91-17.07-17.11z m0 0" fill="#ffffff" p-id="780"></path></svg>